<svg width="220" height="27" viewBox="0 0 220 27" fill="none" xmlns="http://www.w3.org/2000/svg">
<rect width="220" height="27" fill="white"/>
<rect width="147" height="27" rx="13.5" fill="#97AAC6"/>
<path d="M11.0739 19V11.3636H14.196C15.018 11.3636 15.6709 11.5492 16.1548 11.9205C16.6387 12.2917 16.8807 12.7822 16.8807 13.392C16.8807 13.8561 16.7431 14.2157 16.468 14.4709C16.1929 14.7228 15.84 14.8935 15.4091 14.983C15.6908 15.0227 15.9643 15.1222 16.2294 15.2812C16.4979 15.4403 16.7199 15.6591 16.8956 15.9375C17.0713 16.2126 17.1591 16.5507 17.1591 16.9517C17.1591 17.3428 17.0597 17.6925 16.8608 18.0007C16.6619 18.3089 16.3769 18.5526 16.0057 18.7315C15.6345 18.9105 15.1903 19 14.6733 19H11.0739ZM12.1875 17.9261H14.6733C15.0777 17.9261 15.3942 17.83 15.6229 17.6378C15.8516 17.4455 15.9659 17.1837 15.9659 16.8523C15.9659 16.4579 15.8516 16.148 15.6229 15.9226C15.3942 15.6939 15.0777 15.5795 14.6733 15.5795H12.1875V17.9261ZM12.1875 14.5653H14.196C14.5109 14.5653 14.781 14.5223 15.0064 14.4361C15.2318 14.3466 15.4041 14.2206 15.5234 14.0582C15.6461 13.8925 15.7074 13.697 15.7074 13.4716C15.7074 13.1501 15.5732 12.8982 15.3047 12.7159C15.0362 12.5303 14.6667 12.4375 14.196 12.4375H12.1875V14.5653ZM20.1085 17.2699L23.7875 11.3636H25.1397V19H23.9664V13.0938L20.3074 19H18.9352V11.3636H20.1085V17.2699ZM26.4734 21.1875V17.9062H27.1097C27.2655 17.7438 27.3997 17.5682 27.5124 17.3793C27.6251 17.1903 27.7229 16.9666 27.8058 16.7081C27.8919 16.4463 27.9648 16.1281 28.0245 15.7536C28.0842 15.3757 28.1372 14.92 28.1836 14.3864L28.4421 11.3636H33.2944V17.9062H34.4677V21.1875H33.2944V19H27.6467V21.1875H26.4734ZM28.4421 17.9062H32.1211V12.4574H29.5359L29.337 14.3864C29.2541 15.1851 29.1514 15.8828 29.0288 16.4794C28.9061 17.076 28.7106 17.5516 28.4421 17.9062ZM39.2267 19.1591C38.4909 19.1591 37.8562 18.9967 37.3226 18.6719C36.7923 18.3438 36.383 17.8864 36.0946 17.2997C35.8096 16.7098 35.6671 16.0237 35.6671 15.2415C35.6671 14.4593 35.8096 13.7699 36.0946 13.1733C36.383 12.5734 36.784 12.1061 37.2978 11.7713C37.8148 11.4332 38.418 11.2642 39.1074 11.2642C39.5051 11.2642 39.8979 11.3305 40.2857 11.4631C40.6735 11.5956 41.0265 11.8111 41.3446 12.1094C41.6628 12.4044 41.9164 12.7955 42.1053 13.2827C42.2942 13.7699 42.3887 14.3698 42.3887 15.0824V15.5795H36.5023V14.5653H41.1955C41.1955 14.1345 41.1093 13.75 40.937 13.4119C40.7679 13.0739 40.526 12.8071 40.2111 12.6115C39.8996 12.416 39.5317 12.3182 39.1074 12.3182C38.6401 12.3182 38.2357 12.4342 37.8944 12.6662C37.5563 12.8949 37.2961 13.1932 37.1138 13.5611C36.9315 13.929 36.8404 14.3234 36.8404 14.7443V15.4205C36.8404 15.9972 36.9398 16.486 37.1387 16.8871C37.3408 17.2848 37.6209 17.5881 37.9789 17.7969C38.3368 18.0024 38.7528 18.1051 39.2267 18.1051C39.535 18.1051 39.8134 18.062 40.062 17.9759C40.3139 17.8864 40.531 17.7538 40.7132 17.5781C40.8955 17.3991 41.0364 17.1771 41.1358 16.9119L42.2694 17.2301C42.15 17.6146 41.9495 17.9527 41.6678 18.2443C41.3861 18.5327 41.0381 18.758 40.6238 18.9205C40.2095 19.0795 39.7438 19.1591 39.2267 19.1591ZM47.2757 19.1591C46.5864 19.1591 45.9815 18.995 45.4611 18.6669C44.9441 18.3388 44.5397 17.8797 44.248 17.2898C43.9597 16.6998 43.8155 16.0104 43.8155 15.2216C43.8155 14.4261 43.9597 13.7318 44.248 13.1385C44.5397 12.5452 44.9441 12.0845 45.4611 11.7564C45.9815 11.4283 46.5864 11.2642 47.2757 11.2642C47.9651 11.2642 48.5684 11.4283 49.0854 11.7564C49.6058 12.0845 50.0101 12.5452 50.2985 13.1385C50.5901 13.7318 50.736 14.4261 50.736 15.2216C50.736 16.0104 50.5901 16.6998 50.2985 17.2898C50.0101 17.8797 49.6058 18.3388 49.0854 18.6669C48.5684 18.995 47.9651 19.1591 47.2757 19.1591ZM47.2757 18.1051C47.7994 18.1051 48.2303 17.9709 48.5684 17.7024C48.9064 17.4339 49.1567 17.081 49.3191 16.6435C49.4815 16.206 49.5627 15.732 49.5627 15.2216C49.5627 14.7112 49.4815 14.2356 49.3191 13.7947C49.1567 13.3539 48.9064 12.9976 48.5684 12.7259C48.2303 12.4541 47.7994 12.3182 47.2757 12.3182C46.7521 12.3182 46.3212 12.4541 45.9831 12.7259C45.6451 12.9976 45.3948 13.3539 45.2324 13.7947C45.07 14.2356 44.9888 14.7112 44.9888 15.2216C44.9888 15.732 45.07 16.206 45.2324 16.6435C45.3948 17.081 45.6451 17.4339 45.9831 17.7024C46.3212 17.9709 46.7521 18.1051 47.2757 18.1051ZM57.6378 14.6449V15.7386H53.4219V14.6449H57.6378ZM53.7003 11.3636V19H52.527V11.3636H53.7003ZM58.5327 11.3636V19H57.3594V11.3636H58.5327ZM62.9226 19.179C62.4387 19.179 61.9995 19.0878 61.6051 18.9055C61.2107 18.7199 60.8975 18.4531 60.6655 18.1051C60.4335 17.7538 60.3175 17.3295 60.3175 16.8324C60.3175 16.3949 60.4036 16.0402 60.576 15.7685C60.7483 15.4934 60.9787 15.2779 61.267 15.1222C61.5554 14.9664 61.8736 14.8504 62.2216 14.7741C62.5729 14.6946 62.9259 14.6316 63.2805 14.5852C63.7446 14.5256 64.1207 14.4808 64.4091 14.451C64.7008 14.4179 64.9129 14.3632 65.0455 14.2869C65.1813 14.2107 65.2493 14.0781 65.2493 13.8892V13.8494C65.2493 13.3589 65.1151 12.9777 64.8466 12.706C64.5814 12.4342 64.1787 12.2983 63.6385 12.2983C63.0784 12.2983 62.6392 12.4209 62.321 12.6662C62.0028 12.9115 61.7791 13.1733 61.6499 13.4517L60.5362 13.054C60.7351 12.59 61.0002 12.2287 61.3317 11.9702C61.6664 11.7083 62.031 11.526 62.4254 11.4233C62.8232 11.3172 63.2143 11.2642 63.5987 11.2642C63.844 11.2642 64.1257 11.294 64.4439 11.3537C64.7654 11.41 65.0753 11.5277 65.3736 11.7067C65.6752 11.8857 65.9254 12.1558 66.1243 12.517C66.3232 12.8783 66.4226 13.3622 66.4226 13.9688V19H65.2493V17.9659H65.1896C65.1101 18.1316 64.9775 18.3089 64.7919 18.4979C64.6063 18.6868 64.3594 18.8475 64.0511 18.9801C63.7429 19.1127 63.3667 19.179 62.9226 19.179ZM63.1016 18.125C63.5656 18.125 63.9567 18.0339 64.2749 17.8516C64.5964 17.6693 64.8383 17.4339 65.0007 17.1456C65.1664 16.8572 65.2493 16.554 65.2493 16.2358V15.1619C65.1996 15.2216 65.0902 15.2763 64.9212 15.326C64.7554 15.3724 64.5632 15.4138 64.3445 15.4503C64.129 15.4834 63.9186 15.5133 63.7131 15.5398C63.5109 15.563 63.3468 15.5829 63.2209 15.5994C62.916 15.6392 62.6309 15.7038 62.3658 15.7933C62.1039 15.8795 61.8918 16.0104 61.7294 16.1861C61.5703 16.3584 61.4908 16.5937 61.4908 16.892C61.4908 17.2997 61.6416 17.608 61.9432 17.8168C62.2481 18.0223 62.6342 18.125 63.1016 18.125ZM74.2317 8.5L74.8283 9.21591C74.5963 9.44129 74.3278 9.59872 74.0229 9.68821C73.718 9.7777 73.3733 9.83239 72.9888 9.85227C72.6043 9.87216 72.1768 9.89205 71.7061 9.91193C71.1758 9.93182 70.7367 10.0611 70.3887 10.2997C70.0407 10.5384 69.7722 10.883 69.5833 11.3338C69.3944 11.7846 69.2734 12.3381 69.2203 12.9943H69.3198C69.5783 12.517 69.9363 12.1657 70.3936 11.9403C70.851 11.715 71.3416 11.6023 71.8652 11.6023C72.4618 11.6023 72.9988 11.7415 73.476 12.0199C73.9533 12.2983 74.3311 12.7109 74.6096 13.2578C74.888 13.8047 75.0272 14.4792 75.0272 15.2812C75.0272 16.08 74.8846 16.7694 74.5996 17.3494C74.3179 17.9295 73.9218 18.3769 73.4114 18.6918C72.9043 19.0033 72.3094 19.1591 71.6266 19.1591C70.9438 19.1591 70.3456 18.9983 69.8319 18.6768C69.3181 18.352 68.9187 17.8714 68.6337 17.2351C68.3487 16.5954 68.2061 15.8049 68.2061 14.8636V14.0483C68.2061 12.348 68.4945 11.0587 69.0712 10.1804C69.6512 9.30208 70.5229 8.84801 71.6863 8.81818C72.0972 8.80492 72.4635 8.80161 72.785 8.80824C73.1065 8.81487 73.3865 8.79995 73.6252 8.76349C73.8638 8.72704 74.066 8.6392 74.2317 8.5ZM71.6266 18.1051C72.0873 18.1051 72.4834 17.9891 72.8148 17.7571C73.1496 17.5251 73.4064 17.1986 73.5854 16.7777C73.7644 16.3535 73.8539 15.8546 73.8539 15.2812C73.8539 14.7244 73.7627 14.2505 73.5804 13.8594C73.4015 13.4683 73.1446 13.17 72.8098 12.9645C72.4751 12.759 72.074 12.6562 71.6067 12.6562C71.2653 12.6562 70.9587 12.7143 70.687 12.8303C70.4152 12.9463 70.1832 13.117 69.9909 13.3423C69.7987 13.5677 69.6496 13.8428 69.5435 14.1676C69.4408 14.4924 69.3861 14.8636 69.3794 15.2812C69.3794 16.1364 69.58 16.8208 69.981 17.3345C70.382 17.8482 70.9306 18.1051 71.6266 18.1051ZM76.1458 19V17.9062H76.4242C76.6529 17.9062 76.8435 17.8615 76.9959 17.772C77.1484 17.6792 77.271 17.5185 77.3638 17.2898C77.4599 17.0578 77.5328 16.7363 77.5826 16.3253C77.6356 15.911 77.6737 15.384 77.6969 14.7443L77.8361 11.3636H82.927V19H81.7537V12.4574H78.9498L78.8304 15.1818C78.8039 15.8082 78.7476 16.3601 78.6614 16.8374C78.5785 17.3113 78.4509 17.709 78.2786 18.0305C78.1096 18.352 77.8842 18.594 77.6025 18.7564C77.3207 18.9188 76.9677 19 76.5435 19H76.1458ZM88.7388 14.7045V15.7983H84.7019V14.7045H88.7388ZM85.6962 11.3636V19H84.5229V11.3636H85.6962ZM91.0854 19.1591C90.396 19.1591 89.7911 18.995 89.2708 18.6669C88.7537 18.3388 88.3494 17.8797 88.0577 17.2898C87.7694 16.6998 87.6252 16.0104 87.6252 15.2216C87.6252 14.4261 87.7694 13.7318 88.0577 13.1385C88.3494 12.5452 88.7537 12.0845 89.2708 11.7564C89.7911 11.4283 90.396 11.2642 91.0854 11.2642C91.7748 11.2642 92.378 11.4283 92.8951 11.7564C93.4154 12.0845 93.8198 12.5452 94.1081 13.1385C94.3998 13.7318 94.5456 14.4261 94.5456 15.2216C94.5456 16.0104 94.3998 16.6998 94.1081 17.2898C93.8198 17.8797 93.4154 18.3388 92.8951 18.6669C92.378 18.995 91.7748 19.1591 91.0854 19.1591ZM91.0854 18.1051C91.6091 18.1051 92.04 17.9709 92.378 17.7024C92.7161 17.4339 92.9663 17.081 93.1287 16.6435C93.2911 16.206 93.3723 15.732 93.3723 15.2216C93.3723 14.7112 93.2911 14.2356 93.1287 13.7947C92.9663 13.3539 92.7161 12.9976 92.378 12.7259C92.04 12.4541 91.6091 12.3182 91.0854 12.3182C90.5617 12.3182 90.1309 12.4541 89.7928 12.7259C89.4547 12.9976 89.2045 13.3539 89.0421 13.7947C88.8797 14.2356 88.7985 14.7112 88.7985 15.2216C88.7985 15.732 88.8797 16.206 89.0421 16.6435C89.2045 17.081 89.4547 17.4339 89.7928 17.7024C90.1309 17.9709 90.5617 18.1051 91.0854 18.1051ZM95.6394 21.1875V17.9062H96.2757C96.4315 17.7438 96.5658 17.5682 96.6784 17.3793C96.7911 17.1903 96.8889 16.9666 96.9718 16.7081C97.0579 16.4463 97.1309 16.1281 97.1905 15.7536C97.2502 15.3757 97.3032 14.92 97.3496 14.3864L97.6081 11.3636H102.46V17.9062H103.634V21.1875H102.46V19H96.8127V21.1875H95.6394ZM97.6081 17.9062H101.287V12.4574H98.7019L98.503 14.3864C98.4202 15.1851 98.3174 15.8828 98.1948 16.4794C98.0721 17.076 97.8766 17.5516 97.6081 17.9062ZM108.393 19.1591C107.657 19.1591 107.022 18.9967 106.489 18.6719C105.958 18.3438 105.549 17.8864 105.261 17.2997C104.976 16.7098 104.833 16.0237 104.833 15.2415C104.833 14.4593 104.976 13.7699 105.261 13.1733C105.549 12.5734 105.95 12.1061 106.464 11.7713C106.981 11.4332 107.584 11.2642 108.273 11.2642C108.671 11.2642 109.064 11.3305 109.452 11.4631C109.839 11.5956 110.192 11.8111 110.511 12.1094C110.829 12.4044 111.082 12.7955 111.271 13.2827C111.46 13.7699 111.555 14.3698 111.555 15.0824V15.5795H105.668V14.5653H110.362C110.362 14.1345 110.275 13.75 110.103 13.4119C109.934 13.0739 109.692 12.8071 109.377 12.6115C109.066 12.416 108.698 12.3182 108.273 12.3182C107.806 12.3182 107.402 12.4342 107.06 12.6662C106.722 12.8949 106.462 13.1932 106.28 13.5611C106.098 13.929 106.006 14.3234 106.006 14.7443V15.4205C106.006 15.9972 106.106 16.486 106.305 16.8871C106.507 17.2848 106.787 17.5881 107.145 17.7969C107.503 18.0024 107.919 18.1051 108.393 18.1051C108.701 18.1051 108.979 18.062 109.228 17.9759C109.48 17.8864 109.697 17.7538 109.879 17.5781C110.062 17.3991 110.202 17.1771 110.302 16.9119L111.435 17.2301C111.316 17.6146 111.116 17.9527 110.834 18.2443C110.552 18.5327 110.204 18.758 109.79 18.9205C109.375 19.0795 108.91 19.1591 108.393 19.1591ZM118.45 14.6449V15.7386H114.234V14.6449H118.45ZM114.513 11.3636V19H113.339V11.3636H114.513ZM119.345 11.3636V19H118.172V11.3636H119.345ZM122.661 17.2699L126.34 11.3636H127.692V19H126.519V13.0938L122.86 19H121.488V11.3636H122.661V17.2699ZM133.043 19.1591C132.307 19.1591 131.673 18.9967 131.139 18.6719C130.609 18.3438 130.199 17.8864 129.911 17.2997C129.626 16.7098 129.483 16.0237 129.483 15.2415C129.483 14.4593 129.626 13.7699 129.911 13.1733C130.199 12.5734 130.6 12.1061 131.114 11.7713C131.631 11.4332 132.234 11.2642 132.924 11.2642C133.322 11.2642 133.714 11.3305 134.102 11.4631C134.49 11.5956 134.843 11.8111 135.161 12.1094C135.479 12.4044 135.733 12.7955 135.922 13.2827C136.111 13.7699 136.205 14.3698 136.205 15.0824V15.5795H130.319V14.5653H135.012C135.012 14.1345 134.926 13.75 134.753 13.4119C134.584 13.0739 134.342 12.8071 134.028 12.6115C133.716 12.416 133.348 12.3182 132.924 12.3182C132.456 12.3182 132.052 12.4342 131.711 12.6662C131.373 12.8949 131.113 13.1932 130.93 13.5611C130.748 13.929 130.657 14.3234 130.657 14.7443V15.4205C130.657 15.9972 130.756 16.486 130.955 16.8871C131.157 17.2848 131.437 17.5881 131.795 17.7969C132.153 18.0024 132.569 18.1051 133.043 18.1051C133.351 18.1051 133.63 18.062 133.878 17.9759C134.13 17.8864 134.347 17.7538 134.53 17.5781C134.712 17.3991 134.853 17.1771 134.952 16.9119L136.086 17.2301C135.966 17.6146 135.766 17.9527 135.484 18.2443C135.202 18.5327 134.854 18.758 134.44 18.9205C134.026 19.0795 133.56 19.1591 133.043 19.1591Z" fill="white"/>
<rect x="152" width="68" height="27" rx="13.5" fill="#97AAC6"/>
<path d="M169.219 19L165.719 14.3267H164.466V19H163.233V8.81818H164.466V13.233H165.003L169.08 8.81818H170.551L166.435 13.2926L170.69 19H169.219ZM174.372 19.179C173.888 19.179 173.449 19.0878 173.054 18.9055C172.66 18.7199 172.347 18.4531 172.115 18.1051C171.883 17.7538 171.767 17.3295 171.767 16.8324C171.767 16.3949 171.853 16.0402 172.025 15.7685C172.198 15.4934 172.428 15.2779 172.716 15.1222C173.005 14.9664 173.323 14.8504 173.671 14.7741C174.022 14.6946 174.375 14.6316 174.73 14.5852C175.194 14.5256 175.57 14.4808 175.858 14.451C176.15 14.4179 176.362 14.3632 176.495 14.2869C176.631 14.2107 176.699 14.0781 176.699 13.8892V13.8494C176.699 13.3589 176.564 12.9777 176.296 12.706C176.031 12.4342 175.628 12.2983 175.088 12.2983C174.528 12.2983 174.088 12.4209 173.77 12.6662C173.452 12.9115 173.228 13.1733 173.099 13.4517L171.985 13.054C172.184 12.59 172.449 12.2287 172.781 11.9702C173.116 11.7083 173.48 11.526 173.875 11.4233C174.272 11.3172 174.663 11.2642 175.048 11.2642C175.293 11.2642 175.575 11.294 175.893 11.3537C176.215 11.41 176.525 11.5277 176.823 11.7067C177.124 11.8857 177.375 12.1558 177.574 12.517C177.772 12.8783 177.872 13.3622 177.872 13.9688V19H176.699V17.9659H176.639C176.559 18.1316 176.427 18.3089 176.241 18.4979C176.056 18.6868 175.809 18.8475 175.5 18.9801C175.192 19.1127 174.816 19.179 174.372 19.179ZM174.551 18.125C175.015 18.125 175.406 18.0339 175.724 17.8516C176.046 17.6693 176.288 17.4339 176.45 17.1456C176.616 16.8572 176.699 16.554 176.699 16.2358V15.1619C176.649 15.2216 176.539 15.2763 176.37 15.326C176.205 15.3724 176.012 15.4138 175.794 15.4503C175.578 15.4834 175.368 15.5133 175.162 15.5398C174.96 15.563 174.796 15.5829 174.67 15.5994C174.365 15.6392 174.08 15.7038 173.815 15.7933C173.553 15.8795 173.341 16.0104 173.179 16.1861C173.02 16.3584 172.94 16.5937 172.94 16.892C172.94 17.2997 173.091 17.608 173.392 17.8168C173.697 18.0223 174.083 18.125 174.551 18.125ZM179.536 17.0511H180.789C180.815 17.3958 180.971 17.6577 181.256 17.8366C181.545 18.0156 181.919 18.1051 182.38 18.1051C182.85 18.1051 183.253 18.009 183.588 17.8168C183.923 17.6212 184.09 17.3063 184.09 16.8722C184.09 16.617 184.027 16.3949 183.901 16.206C183.775 16.0137 183.598 15.8646 183.369 15.7585C183.14 15.6525 182.87 15.5994 182.559 15.5994H181.246V14.5455H182.559C183.026 14.5455 183.371 14.4394 183.593 14.2273C183.818 14.0152 183.931 13.75 183.931 13.4318C183.931 13.0904 183.81 12.817 183.568 12.6115C183.326 12.4027 182.983 12.2983 182.539 12.2983C182.091 12.2983 181.719 12.3994 181.42 12.6016C181.122 12.8004 180.965 13.0573 180.948 13.3722H179.715C179.728 12.9612 179.854 12.5982 180.093 12.2834C180.331 11.9652 180.656 11.7166 181.067 11.5376C181.478 11.3554 181.949 11.2642 182.479 11.2642C183.016 11.2642 183.482 11.3587 183.876 11.5476C184.274 11.7332 184.581 11.9867 184.796 12.3082C185.015 12.6264 185.124 12.9877 185.124 13.392C185.124 13.8229 185.003 14.1709 184.761 14.4361C184.519 14.7012 184.216 14.8902 183.851 15.0028V15.0824C184.14 15.1023 184.39 15.1951 184.602 15.3608C184.818 15.5232 184.985 15.737 185.104 16.0021C185.224 16.264 185.283 16.554 185.283 16.8722C185.283 17.3362 185.159 17.7405 184.91 18.0852C184.662 18.4266 184.32 18.6918 183.886 18.8807C183.452 19.0663 182.956 19.1591 182.4 19.1591C181.859 19.1591 181.376 19.0713 180.948 18.8956C180.52 18.7166 180.181 18.4697 179.929 18.1548C179.68 17.8366 179.549 17.4688 179.536 17.0511ZM189.178 19.179C188.695 19.179 188.255 19.0878 187.861 18.9055C187.467 18.7199 187.153 18.4531 186.921 18.1051C186.689 17.7538 186.573 17.3295 186.573 16.8324C186.573 16.3949 186.66 16.0402 186.832 15.7685C187.004 15.4934 187.235 15.2779 187.523 15.1222C187.811 14.9664 188.129 14.8504 188.477 14.7741C188.829 14.6946 189.182 14.6316 189.536 14.5852C190 14.5256 190.377 14.4808 190.665 14.451C190.957 14.4179 191.169 14.3632 191.301 14.2869C191.437 14.2107 191.505 14.0781 191.505 13.8892V13.8494C191.505 13.3589 191.371 12.9777 191.102 12.706C190.837 12.4342 190.435 12.2983 189.894 12.2983C189.334 12.2983 188.895 12.4209 188.577 12.6662C188.259 12.9115 188.035 13.1733 187.906 13.4517L186.792 13.054C186.991 12.59 187.256 12.2287 187.588 11.9702C187.922 11.7083 188.287 11.526 188.681 11.4233C189.079 11.3172 189.47 11.2642 189.855 11.2642C190.1 11.2642 190.382 11.294 190.7 11.3537C191.021 11.41 191.331 11.5277 191.629 11.7067C191.931 11.8857 192.181 12.1558 192.38 12.517C192.579 12.8783 192.678 13.3622 192.678 13.9688V19H191.505V17.9659H191.445C191.366 18.1316 191.233 18.3089 191.048 18.4979C190.862 18.6868 190.615 18.8475 190.307 18.9801C189.999 19.1127 189.623 19.179 189.178 19.179ZM189.357 18.125C189.821 18.125 190.213 18.0339 190.531 17.8516C190.852 17.6693 191.094 17.4339 191.257 17.1456C191.422 16.8572 191.505 16.554 191.505 16.2358V15.1619C191.455 15.2216 191.346 15.2763 191.177 15.326C191.011 15.3724 190.819 15.4138 190.6 15.4503C190.385 15.4834 190.174 15.5133 189.969 15.5398C189.767 15.563 189.603 15.5829 189.477 15.5994C189.172 15.6392 188.887 15.7038 188.622 15.7933C188.36 15.8795 188.148 16.0104 187.985 16.1861C187.826 16.3584 187.747 16.5937 187.747 16.892C187.747 17.2997 187.897 17.608 188.199 17.8168C188.504 18.0223 188.89 18.125 189.357 18.125ZM199.931 14.6449V15.7386H195.715V14.6449H199.931ZM195.993 11.3636V19H194.82V11.3636H195.993ZM200.826 11.3636V19H199.652V11.3636H200.826ZM203.983 14.1278H206.17C207.065 14.1278 207.749 14.3549 208.223 14.8089C208.697 15.263 208.934 15.8381 208.934 16.5341C208.934 16.9915 208.828 17.4074 208.616 17.782C208.404 18.1532 208.092 18.4498 207.681 18.6719C207.27 18.8906 206.767 19 206.17 19H202.968V11.3636H204.142V17.9062H206.17C206.634 17.9062 207.015 17.7836 207.314 17.5384C207.612 17.2931 207.761 16.9782 207.761 16.5938C207.761 16.1894 207.612 15.8596 207.314 15.6044C207.015 15.3492 206.634 15.2216 206.17 15.2216H203.983V14.1278Z" fill="white"/>
</svg>
